<svg xmlns:xlink="http://www.w3.org/1999/xlink" class="ProfileItem_icon__3Gmbu" width="24" height="24" viewBox="0 0 24 24" fill="none" xmlns="http://www.w3.org/2000/svg"><path fill-rule="evenodd" clip-rule="evenodd" d="M14.7671 13.5526C15.4184 13.5526 15.9916 13.1966 16.2868 12.6582L19.1266 7.02211C19.4479 6.44895 19.0311 5.73684 18.3711 5.73684H6.65605L5.83974 4H2.86842C2.38881 4 2 4.38881 2 4.86842C2 5.34804 2.38881 5.73684 2.86842 5.73684H4.73684L7.86316 12.3282L6.90789 13.9868C6.27395 15.1505 6.89053 16.1579 8.21053 16.1579H16.8947C17.3744 16.1579 17.7632 15.7691 17.7632 15.2895C17.7632 14.8099 17.3744 14.4211 16.8947 14.4211H8.64474L9.16579 13.5526H14.7671ZM7.48105 7.47368H16.8947L14.7671 11.8158H9.53921L7.48105 7.47368ZM11.25 18.9803C11.25 19.8196 10.5696 20.5 9.73024 20.5C8.89092 20.5 8.21051 19.8196 8.21051 18.9803C8.21051 18.1409 8.89092 17.4605 9.73024 17.4605C10.5696 17.4605 11.25 18.1409 11.25 18.9803ZM14.9408 20.5C15.7801 20.5 16.4605 19.8196 16.4605 18.9803C16.4605 18.1409 15.7801 17.4605 14.9408 17.4605C14.1014 17.4605 13.421 18.1409 13.421 18.9803C13.421 19.8196 14.1014 20.5 14.9408 20.5Z" fill="#1A1A1A"></path></svg>