<svg xmlns:xlink="http://www.w3.org/1999/xlink" class="ProfileItem_icon__3Gmbu" width="24" height="24" viewBox="0 0 24 24" fill="none" xmlns="http://www.w3.org/2000/svg"><path fill-rule="evenodd" clip-rule="evenodd" d="M6.6 5.8C6.6 5.68954 6.68954 5.6 6.8 5.6H14.2C14.3105 5.6 14.4 5.68954 14.4 5.8V7.8H16V5.8C16 4.80589 15.1941 4 14.2 4H6.8C5.80589 4 5 4.80589 5 5.8V17.8C5 18.7941 5.80589 19.6 6.8 19.6H14.2C15.1941 19.6 16 18.7941 16 17.8V15.8H14.4V17.8C14.4 17.9105 14.3105 18 14.2 18H6.8C6.68954 18 6.6 17.9105 6.6 17.8V5.8ZM13.0657 8.73431C13.3781 9.04673 13.3781 9.55326 13.0657 9.86568L11.9314 11H18C18.4419 11 18.8 11.3582 18.8 11.8C18.8 12.2418 18.4419 12.6 18 12.6H11.9314L13.0657 13.7343C13.3781 14.0467 13.3781 14.5533 13.0657 14.8657C12.7533 15.1781 12.2467 15.1781 11.9343 14.8657L9.43434 12.3657C9.12192 12.0533 9.12192 11.5467 9.43434 11.2343L11.9343 8.73431C12.2467 8.42189 12.7533 8.42189 13.0657 8.73431Z" fill="#E52E6B"></path></svg>